<svg width="27" height="32" viewBox="0 0 27 32" fill="none" xmlns="http://www.w3.org/2000/svg">
<path d="M0.0111402 20.1042C0.824214 17.0554 1.70213 15.2589 3.76796 13.0472C3.97354 12.8271 4.33968 13.0026 4.31815 13.3033C4.12475 16.0051 4.74956 17.6669 6.04792 19.6208C6.21677 19.8749 5.96992 20.2148 5.67636 20.1334C3.43615 19.5118 2.08537 19.5925 0.500375 20.4686C0.248663 20.6077 -0.0630888 20.3825 0.0111402 20.1042Z" fill="#54D2D2"/>
<path d="M19.9783 31.4064C22.1528 29.2019 23.1893 27.6652 24.0677 24.8268C24.1577 24.5361 23.8178 24.3027 23.5672 24.4746C21.3859 25.9712 19.741 26.1658 17.481 26.0215C17.1798 26.0023 17.0128 26.3799 17.2264 26.5936C18.818 28.1857 19.3975 29.3776 19.4153 31.1615C19.4182 31.4526 19.7741 31.6135 19.9783 31.4064Z" fill="#54D2D2"/>
<path fill-rule="evenodd" clip-rule="evenodd" d="M22.538 6.28661C23.6445 6.40821 24.7698 5.88081 25.3621 4.85263C26.1615 3.46489 25.6871 1.69041 24.3025 0.889202C22.9179 0.087995 21.1475 0.563467 20.3481 1.9512C19.7558 2.97939 19.8628 4.2199 20.5211 5.11955L9.66298 22.985C7.8865 26.069 5.98412 23.5144 5.98412 23.5144C3.51262 20.8551 2.90024 18.5196 3.15318 16.4322C3.19881 16.0556 2.58322 15.7649 2.41081 16.1027C0.149893 20.5316 1.7505 23.8439 5.96646 29.4021C6.44921 30.0094 6.65228 30.3651 6.92857 31.018L6.93503 31.0425L6.95643 31.0341C7.6587 30.9475 8.0676 30.9459 8.83369 31.0613C15.7443 31.9416 19.4066 31.6748 22.103 27.4979C22.3087 27.1793 21.7497 26.7903 21.4471 27.0183C19.77 28.2815 17.4457 28.9177 13.9122 28.1021C13.9122 28.1021 10.7537 27.7281 12.5302 24.6442L22.538 6.28661ZM24.026 4.07887C23.6529 4.72648 22.8267 4.94837 22.1806 4.57447C21.5344 4.20057 21.313 3.37248 21.6861 2.72487C22.0591 2.07726 22.8853 1.85538 23.5315 2.22927C24.1776 2.60317 24.399 3.43126 24.026 4.07887Z" fill="#54D2D2"/>
<path d="M13.8365 3.97024C14.0981 3.51607 14.6775 3.36047 15.1306 3.62268L26.5261 10.2168C26.9793 10.479 27.1345 11.0598 26.8729 11.5139L26.2764 12.5495C26.0148 13.0037 25.4354 13.1593 24.9822 12.8971L13.5867 6.3029C13.1336 6.04069 12.9783 5.45995 13.24 5.00579L13.8365 3.97024Z" fill="#54D2D2"/>
</svg>
