<svg xmlns="http://www.w3.org/2000/svg" width="400" height="400" viewBox="0 0 400 400"><defs><style>.a{fill:#2f363a;}.b{fill:#15c1b8;}</style></defs><path class="a" d="M216.39,0C386.67,0,400,13.33,400,183.61v32.78C400,386.67,386.67,400,216.39,400H183.61C13.33,400,0,386.67,0,216.39V183.61C0,13.33,13.33,0,183.61,0Z"/><path class="b" d="M274.37,181.13a24.62,24.62,0,0,1-24.05,19H149a24.62,24.62,0,0,1-24-19l-12.18-51.49c-2.9.26-5.85.44-8.83.56l12.53,52.94A33.3,33.3,0,0,0,149,208.87H250.32a33.3,33.3,0,0,0,32.53-25.73l12.53-52.94c-3-.12-5.93-.3-8.83-.56Z"/><path class="b" d="M263,138.36H136.39a4.36,4.36,0,1,1,0-8.72H263a4.36,4.36,0,0,1,0,8.72Z"/><path class="b" d="M255.42,163.2H143.94a4.36,4.36,0,0,1,0-8.72H255.42a4.36,4.36,0,0,1,0,8.72Z"/><path class="b" d="M245.77,188H153.59a4.36,4.36,0,0,1,0-8.72h92.18a4.36,4.36,0,0,1,0,8.72Z"/><path class="b" d="M307.82,125.54c-47.33,0-96.18-33.69-108.14-42.5-12,8.81-60.81,42.5-108.14,42.5a4.36,4.36,0,0,1,0-8.72c50.26,0,104.91-42.25,105.45-42.68l2.69-2.1,2.69,2.1c.54.43,55.19,42.68,105.45,42.68a4.36,4.36,0,1,1,0,8.72Z"/><path class="b" d="M254.46,246c-14.78,0-26.75,12.23-26.75,27.33V328h13.37V273.29a13.53,13.53,0,0,1,13.38-13.67h26.75V246Z"/><path class="b" d="M199,246v54.66a13.38,13.38,0,1,1-26.75,0V246H158.92v54.66c0,15.1,12,27.34,26.75,27.34h0c14.77,0,26.75-12.24,26.75-27.34V246Z"/><path class="b" d="M116.88,246a26.54,26.54,0,0,0-20.06,9.18A26.58,26.58,0,0,0,76.75,246,26.87,26.87,0,0,0,50,273v55H63.38V273a13.38,13.38,0,1,1,26.75,0v55H103.5V273a13.38,13.38,0,1,1,26.75,0v55h13.38V273A26.87,26.87,0,0,0,116.88,246Z"/><path class="b" d="M323.25,246c-14.78,0-26.75,12.23-26.75,27.33V328h13.37V273.29a13.38,13.38,0,1,1,26.75,0v10.93H316.56v13.67h20.06V328H350V273.29C350,258.19,338,246,323.25,246Z"/></svg>