<svg width="54" height="62" viewBox="0 0 54 62" fill="none" xmlns="http://www.w3.org/2000/svg">
<path d="M0.0222804 39.2084C1.64843 33.1109 3.40426 29.5179 7.53592 25.0944C7.94708 24.6542 8.67936 25.0051 8.63631 25.6066C8.24949 31.0103 9.49912 34.3338 12.0958 38.2417C12.4335 38.7499 11.9398 39.4296 11.3527 39.2667C6.87229 38.0236 4.17074 38.1849 1.00075 39.9371C0.497325 40.2154 -0.126178 39.7651 0.0222804 39.2084Z" fill="#072448"/>
<path d="M39.9566 61.8128C44.3057 57.4037 46.3786 54.3304 48.1354 48.6536C48.3153 48.0722 47.6357 47.6054 47.1345 47.9492C42.7719 50.9423 39.4821 51.3316 34.9619 51.043C34.3595 51.0046 34.0257 51.7598 34.4529 52.1871C37.6361 55.3714 38.795 57.7551 38.8306 61.3229C38.8364 61.9052 39.5482 62.227 39.9566 61.8128Z" fill="#072448"/>
<path fill-rule="evenodd" clip-rule="evenodd" d="M45.076 11.5732C47.289 11.8164 49.5397 10.7616 50.7242 8.70525C52.323 5.92979 51.3742 2.38082 48.605 0.778404C45.8359 -0.82401 42.295 0.126933 40.6962 2.9024C39.5116 4.95879 39.7256 7.4398 41.0423 9.2391L19.326 44.97C15.773 51.1379 11.9682 46.0288 11.9682 46.0288C7.02523 40.7103 5.80047 36.0392 6.30635 31.8645C6.39763 31.1112 5.16645 30.5299 4.82162 31.2054C0.299785 40.0632 3.50099 46.6879 11.9329 57.8043C12.8984 59.0188 13.3046 59.7302 13.8571 61.036L13.8701 61.085L13.9129 61.0682C15.3174 60.895 16.1352 60.8918 17.6674 61.1226C31.4886 62.8833 38.8133 62.3496 44.2061 53.9957C44.6173 53.3586 43.4994 52.5807 42.8942 53.0365C39.5399 55.563 34.8914 56.8354 27.8244 55.2042C27.8244 55.2042 21.5074 54.4563 25.0604 48.2884L45.076 11.5732ZM48.0519 7.15774C47.3058 8.45296 45.6534 8.89673 44.3611 8.14894C43.0688 7.40114 42.6261 5.74496 43.3722 4.44974C44.1183 3.15453 45.7707 2.71075 47.063 3.45854C48.3552 4.20634 48.798 5.86252 48.0519 7.15774Z" fill="#072448"/>
<path d="M27.6729 6.94047C28.1962 6.03215 29.355 5.72093 30.2613 6.24535L53.0523 19.4337C53.9585 19.9581 54.2691 21.1196 53.7458 22.0279L52.5528 24.099C52.0296 25.0073 50.8707 25.3185 49.9644 24.7941L27.1734 11.6058C26.2672 11.0814 25.9567 9.9199 26.4799 9.01157L27.6729 6.94047Z" fill="#072448"/>
</svg>
